<svg xmlns="http://www.w3.org/2000/svg" viewBox="0 0 920 220" role="img" aria-label="WorkTaskMe">
  <defs>
    <linearGradient id="bg" x1="0%" y1="0%" x2="100%" y2="100%">
      <stop offset="0%" stop-color="#4338CA"/>
      <stop offset="50%" stop-color="#4F46E5"/>
      <stop offset="100%" stop-color="#3730A3"/>
    </linearGradient>
    <linearGradient id="mark" x1="18%" y1="20%" x2="88%" y2="82%">
      <stop offset="0%" stop-color="#EEF2FF"/>
      <stop offset="45%" stop-color="#C7D2FE"/>
      <stop offset="72%" stop-color="#34D399"/>
      <stop offset="100%" stop-color="#10B981"/>
    </linearGradient>
    <clipPath id="plate">
      <rect x="16" y="16" width="188" height="188" rx="42"/>
    </clipPath>
  </defs>

  <!-- Icon -->
  <g transform="translate(0,0)">
    <rect x="16" y="16" width="188" height="188" rx="42" fill="url(#bg)"/>
    <g clip-path="url(#plate)" opacity=".35" fill="#A5B4FC">
      <circle cx="48" cy="52" r="2"/>
      <circle cx="78" cy="40" r="1.5"/>
      <circle cx="170" cy="48" r="2"/>
      <circle cx="48" cy="170" r="1.5"/>
      <path d="M48 52L78 40" stroke="#A5B4FC" stroke-width="1.5" fill="none"/>
    </g>
    <g transform="translate(16,16) scale(0.3671875)">
      <path fill="url(#mark)" d="
        M112 378
        L148 168
        C152 148 168 136 188 136
        H214
        C234 136 248 150 252 170
        L286 318
        L320 170
        C324 150 338 136 358 136
        H378
        C394 136 406 146 412 162
        L436 236
        L460 178
        C468 160 490 156 504 172
        C518 188 514 212 498 224
        L422 292
        C406 306 384 308 366 296
        L348 284
        L330 340
        C322 368 296 388 266 388
        H242
        C214 388 190 370 182 344
        L154 236
        L140 378
        C138 396 124 408 106 408
        C88 408 76 396 76 378
        Z
      "/>
      <circle cx="132" cy="322" r="17" fill="#4F46E5"/>
      <path
        d="M278 292 L318 332 L408 228"
        fill="none"
        stroke="#10B981"
        stroke-width="22"
        stroke-linecap="round"
        stroke-linejoin="round"
      />
      <path
        d="M278 292 L318 332 L408 228"
        fill="none"
        stroke="#ECFDF5"
        stroke-width="10"
        stroke-linecap="round"
        stroke-linejoin="round"
      />
    </g>
  </g>

  <!-- Wordmark -->
  <text
    x="236"
    y="132"
    fill="#312E81"
    font-family="Inter, Segoe UI, Arial, Helvetica, sans-serif"
    font-size="72"
    font-weight="800"
    letter-spacing="-1.5"
  >WorkTaskMe</text>
</svg>
